# xmcd CD database file
#
# Track frame offsets:
#	150
#	9081
#	29384
#	51951
#	72840
#	92566
#	119342
#	133452
#	147955
#	154858
#	170486
#	186085
#	206079
#	231490
#	252430
#	268631
#	287891
#	302225
#	320224
#	339574
#
# Disc length: 4631 seconds
#
# Revision: 0
# Processed by: cddbd v1.5.2PL0 Copyright (c) Steve Scherf et al.
# Submitted via: CDex 1.51
#
DISCID=37121514
DTITLE=Varius Artists - Jazz auf dem Stall
DYEAR=2006
DGENRE=Jazz
TTITLE0=Lothar Graap - Toccata g-moll
TTITLE1=Lühning - Candlelight
TTITLE2=Joachim Schönecker Trio - Taxi of the desert
TTITLE3=Julia Hülsmann Trio - invitation
TTITLE4=Sandra Weckert Trio - Deutschlands Trompeter Nr1
TTITLE5=Oli Bott und Thomas Wallisch - New Life
TTITLE6=Vibratanghissimo - Dance your life
TTITLE7=Sabe - Madalena
TTITLE8=Maria Helmin Quintett - Route 66
TTITLE9=Sandra Weckert Sextett - Gerd Dudek, Gerd Dudek
TTITLE10=Jacobien Vlasman - Blues against racism
TTITLE11=Bhavan - One small day
TTITLE12=Shoot the moon - Paradise
TTITLE13=The Toughes Tenors - Montmatre
TTITLE14=Oli Bott und Thomas Wallisch - Watch out for JP
TTITLE15=M&M - Soulfood
TTITLE16=Debus - Untitled
TTITLE17=Jacobien Vlasman Quartett - Ik verscheurde je foto
TTITLE18=Teachers passion - In und um A
TTITLE19=Gol-Ha - Galoppade
EXTD=YEAR: 2006
EXTT0=
EXTT1=
EXTT2=
EXTT3=
EXTT4=
EXTT5=
EXTT6=
EXTT7=
EXTT8=
EXTT9=
EXTT10=
EXTT11=
EXTT12=
EXTT13=
EXTT14=
EXTT15=
EXTT16=
EXTT17=
EXTT18=
EXTT19=
PLAYORDER=
